<svg version="1.1" viewBox="0 0 640 400" xmlns="http://www.w3.org/2000/svg" xmlns:xlink="http://www.w3.org/1999/xlink"
    xmlns:svgjs="http://svgjs.dev/svgjs" matcher="0.43932433478052757">
    <g viewBox="0 0 640 400" matcher="0.43932433478052757">
        <g matcher="0.43932433478052757">
            <g matcher="0.43932433478052757">
                <g matcher="0.43932433478052757"><svg viewBox="0 0 640 400" data-background-color="#242424"
                        preserveAspectRatio="xMidYMid meet" height="400" width="640" xmlns="http://www.w3.org/2000/svg"
                        xmlns:xlink="http://www.w3.org/1999/xlink">
                        <rect width="640" height="400" x="0" y="0" opacity="1" fill="#242424"
                            data-fill-palette-color="background" id="background"></rect>
                        <g id="tight-bounds" transform="matrix(1,0,0,1,160,20)"><svg viewBox="0 0 320 360" height="360"
                                width="320">
                                <g><svg></svg></g>
                                <g><svg viewBox="0 0 320 360" height="360" width="320">
                                        <g>
                                            <path xmlns="http://www.w3.org/2000/svg"
                                                d="M320 187.111c0-45.764-20.238-86.866-52.203-114.908-28.043-31.964-69.145-52.203-114.908-52.203-84.302 0-152.889 68.587-152.889 152.889 0 45.753 20.231 86.848 52.185 114.891 28.043 31.975 69.152 52.22 114.926 52.22 0.299 0 0.59-0.021 0.889-0.021 0.299 0 0.59 0.021 0.889 0.021 83.456 0 151.111-67.655 151.111-151.111 0-0.299-0.021-0.59-0.021-0.889 0-0.299 0.021-0.59 0.021-0.889zM59.833 263.097c-15.093-21.255-24.071-47.143-24.256-75.097 0.48-72.928 59.492-131.943 132.423-132.423 27.954 0.185 53.845 9.163 75.097 24.256 24.366 23.627 39.57 56.64 39.57 93.056 0 71.559-58.219 129.778-129.778 129.778-36.416 0-69.429-15.204-93.056-39.57zM3.556 172.889c0-82.343 66.99-149.333 149.333-149.333 35.051 0 67.292 12.167 92.8 32.462-22.98-13.824-49.863-21.796-78.578-21.796-84.302 0-152.889 68.587-152.889 152.889 0 28.708 7.968 55.584 21.785 78.56-20.288-25.5-32.452-57.739-32.451-92.782zM167.111 318.667c-35.84 0-68.363-14.418-92.107-37.743 21.952 15.89 48.864 25.298 77.885 25.298 73.522 0 133.333-59.812 133.333-133.333 0-29.02-9.408-55.932-25.298-77.885 23.324 23.744 37.742 56.267 37.743 92.107 0 72.54-59.015 131.556-131.556 131.556z"
                                                fill="#f4f3f0" fill-rule="nonzero" stroke="none" stroke-width="1"
                                                stroke-linecap="butt" stroke-linejoin="miter" stroke-miterlimit="10"
                                                stroke-dasharray="" stroke-dashoffset="0" font-family="none"
                                                font-weight="none" font-size="none" text-anchor="none"
                                                style="mix-blend-mode: normal" data-fill-palette-color="tertiary">
                                            </path>
                                        </g>
                                        <g transform="matrix(1,0,0,1,64,153.2464200156692)"><svg
                                                viewBox="0 0 192 53.50715996866158" height="53.50715996866158"
                                                width="192">
                                                <g><svg viewBox="0 0 192 53.50715996866158" height="53.50715996866158"
                                                        width="192">
                                                        <g transform="matrix(1,0,0,1,0,27.508442343655286)"><svg
                                                                viewBox="0 0 192 25.998717625006297"
                                                                height="25.998717625006297" width="192">
                                                                <g id="textblocktransform"><svg
                                                                        viewBox="0 0 192 25.998717625006297"
                                                                        height="25.998717625006297" width="192"
                                                                        id="textblock">
                                                                        <g><svg viewBox="0 0 192 25.998717625006297"
                                                                                height="25.998717625006297" width="192">
                                                                                <g transform="matrix(1,0,0,1,0,0)"><svg
                                                                                        width="192"
                                                                                        viewBox="0.232072114944458 -22.032249450683594 367.2828369140625 49.73375701904297"
                                                                                        height="25.998717625006297"
                                                                                        data-palette-color="#ffffff">
                                                                                        <path
                                                                                            d="M29.53-14.521l-2.591 3.303c-0.329-0.519-0.792-1.041-1.39-1.566-0.598-0.525-1.284-1.018-2.059-1.481-0.768-0.462-1.622-0.872-2.56-1.23-0.946-0.353-1.943-0.605-2.992-0.757v0c-2.698-0.391-4.765-0.172-6.198 0.657-1.435 0.836-2.281 2.145-2.54 3.926v0c-0.181 1.247 0.006 2.281 0.56 3.103 0.555 0.821 1.481 1.562 2.78 2.222 1.3 0.653 2.966 1.38 4.999 2.18v0c2.365 0.882 4.379 1.831 6.044 2.847 1.665 1.016 2.884 2.227 3.657 3.632 0.773 1.405 1.007 3.161 0.701 5.265v0c-0.244 1.682-0.775 3.094-1.594 4.235-0.825 1.14-1.871 2.029-3.135 2.668-1.271 0.637-2.71 1.035-4.316 1.193-1.598 0.152-3.301 0.097-5.109-0.165v0c-1.781-0.258-3.493-0.698-5.134-1.32-1.64-0.629-3.163-1.415-4.569-2.36-1.413-0.939-2.697-2.048-3.852-3.328v0l2.662-3.443c0.446 0.637 1.049 1.287 1.809 1.949 0.766 0.663 1.65 1.304 2.652 1.921 1.002 0.617 2.106 1.154 3.313 1.612 1.212 0.465 2.478 0.794 3.797 0.985v0c2.501 0.363 4.506 0.192 6.016-0.512 1.518-0.71 2.403-1.935 2.655-3.677v0c0.191-1.32-0.042-2.428-0.7-3.325-0.664-0.905-1.713-1.73-3.147-2.477-1.441-0.748-3.208-1.543-5.302-2.386v0c-2.283-0.931-4.182-1.869-5.695-2.816-1.507-0.939-2.58-2.045-3.217-3.316-0.645-1.266-0.834-2.822-0.566-4.67v0c0.324-2.237 1.143-4.048 2.455-5.433 1.313-1.393 2.981-2.346 5.002-2.862 2.021-0.509 4.235-0.588 6.644-0.239v0c1.577 0.229 3.024 0.607 4.342 1.135 1.319 0.521 2.529 1.165 3.63 1.931 1.095 0.765 2.077 1.632 2.948 2.599zM47.022 19.66v0c-2.477-0.289-4.667-1.048-6.571-2.276-1.898-1.221-3.483-2.769-4.754-4.642-1.272-1.873-2.18-3.922-2.726-6.148-0.539-2.224-0.678-4.459-0.416-6.703v0c0.273-2.344 0.955-4.533 2.044-6.567 1.09-2.034 2.483-3.798 4.182-5.292 1.698-1.493 3.61-2.609 5.736-3.347 2.133-0.738 4.388-0.968 6.766-0.691v0c2.477 0.289 4.665 1.061 6.566 2.316 1.893 1.261 3.465 2.834 4.715 4.718 1.256 1.892 2.158 3.94 2.706 6.145 0.541 2.211 0.682 4.422 0.424 6.634v0c-0.273 2.344-0.945 4.534-2.015 6.571-1.076 2.036-2.464 3.8-4.161 5.293-1.698 1.493-3.609 2.599-5.733 3.318-2.132 0.725-4.386 0.948-6.763 0.671zM37.064 0.417v0c-0.208 1.781-0.121 3.54 0.261 5.276 0.381 1.736 1.027 3.311 1.935 4.726 0.91 1.408 2.062 2.58 3.456 3.514 1.401 0.935 3.009 1.509 4.824 1.72v0c1.881 0.219 3.612 0.019 5.194-0.602 1.576-0.622 2.964-1.53 4.164-2.726 1.194-1.203 2.159-2.597 2.894-4.183 0.736-1.592 1.202-3.229 1.399-4.911v0c0.209-1.788 0.121-3.54-0.263-5.256-0.383-1.723-1.035-3.299-1.956-4.728-0.927-1.43-2.083-2.602-3.466-3.515-1.384-0.913-2.966-1.474-4.747-1.682v0c-1.881-0.219-3.611-0.029-5.191 0.573-1.574 0.602-2.961 1.504-4.162 2.706-1.193 1.196-2.167 2.58-2.92 4.149-0.747 1.571-1.221 3.217-1.422 4.939zM84.794 23.432v0c-2.816-0.244-5.145-0.937-6.986-2.08-1.835-1.142-3.261-2.601-4.279-4.375-1.011-1.774-1.69-3.746-2.038-5.917-0.348-2.165-0.425-4.373-0.229-6.625v0l1.543-17.843 4.474 0.387-1.544 17.843c-0.149 1.72-0.118 3.416 0.092 5.087 0.203 1.67 0.648 3.188 1.332 4.552 0.679 1.357 1.666 2.476 2.962 3.358 1.296 0.882 2.953 1.41 4.972 1.584v0c2.052 0.178 3.793-0.063 5.222-0.723 1.423-0.667 2.589-1.62 3.499-2.859 0.91-1.239 1.608-2.655 2.094-4.245 0.493-1.597 0.812-3.239 0.958-4.926v0l1.544-17.843 4.473 0.387-1.544 17.843c-0.206 2.384-0.678 4.622-1.414 6.713-0.73 2.092-1.762 3.896-3.098 5.414-1.33 1.524-2.988 2.676-4.976 3.453-1.988 0.778-4.34 1.05-7.057 0.815zM134.015 26.369l-19.837-28.272-1.491 27.099-4.483-0.247 1.946-35.367 3.784 0.209 20.106 28.838 1.519-27.598 4.483 0.246-1.944 35.317zM159.255 27.089l-12.267-0.284 0.82-35.41 12.266 0.284c3.792 0.088 6.943 0.951 9.453 2.589 2.509 1.639 4.363 3.809 5.561 6.511 1.204 2.709 1.769 5.692 1.693 8.951v0c-0.083 3.592-0.855 6.702-2.317 9.329-1.455 2.627-3.482 4.641-6.081 6.041-2.593 1.407-5.636 2.07-9.128 1.989zM172.242 9.625v0c0.062-2.659-0.374-5.033-1.305-7.122-0.939-2.082-2.324-3.728-4.157-4.937-1.833-1.203-4.099-1.835-6.798-1.898v0l-7.778-0.18-0.635 27.432 7.778 0.18c2.733 0.063 5.043-0.49 6.93-1.66 1.888-1.17 3.339-2.783 4.353-4.84 1.015-2.057 1.552-4.382 1.612-6.975zM205.796-4.344l-2.069 3.652c-0.403-0.464-0.939-0.911-1.607-1.34-0.669-0.429-1.421-0.815-2.257-1.157-0.829-0.342-1.734-0.62-2.715-0.835-0.988-0.208-2.012-0.308-3.072-0.302v0c-2.727 0.016-4.737 0.541-6.031 1.575-1.294 1.041-1.936 2.461-1.925 4.261v0c0.007 1.26 0.346 2.255 1.017 2.985 0.671 0.729 1.698 1.324 3.081 1.782 1.383 0.452 3.139 0.922 5.268 1.409v0c2.47 0.519 4.603 1.157 6.401 1.913 1.798 0.756 3.184 1.772 4.158 3.046 0.974 1.274 1.467 2.975 1.479 5.102v0c0.01 1.7-0.305 3.175-0.944 4.425-0.646 1.25-1.547 2.286-2.702 3.106-1.162 0.82-2.525 1.428-4.09 1.824-1.558 0.389-3.25 0.589-5.076 0.599v0c-1.8 0.01-3.558-0.169-5.274-0.539-1.716-0.377-3.339-0.927-4.869-1.652-1.538-0.718-2.973-1.623-4.306-2.715v0l2.118-3.803c0.537 0.564 1.23 1.116 2.08 1.658 0.856 0.542 1.826 1.043 2.908 1.503 1.083 0.46 2.255 0.827 3.517 1.1 1.268 0.279 2.569 0.415 3.902 0.408v0c2.527-0.015 4.484-0.483 5.872-1.404 1.395-0.928 2.087-2.272 2.077-4.033v0c-0.008-1.333-0.404-2.394-1.189-3.183-0.791-0.795-1.952-1.455-3.481-1.98-1.536-0.524-3.403-1.047-5.599-1.567v0c-2.397-0.579-4.414-1.224-6.052-1.935-1.631-0.704-2.856-1.637-3.676-2.799-0.827-1.155-1.245-2.666-1.256-4.533v0c-0.013-2.26 0.526-4.173 1.617-5.739 1.091-1.573 2.597-2.765 4.519-3.576 1.922-0.804 4.1-1.214 6.533-1.228v0c1.593-0.009 3.081 0.149 4.463 0.474 1.382 0.319 2.675 0.775 3.878 1.367 1.197 0.593 2.298 1.303 3.302 2.131zM210.936 9.207v0c-0.07-2.159 0.234-4.29 0.912-6.393 0.679-2.103 1.713-4.035 3.103-5.794 1.39-1.76 3.115-3.18 5.174-4.261 2.066-1.081 4.428-1.665 7.087-1.751v0c3.158-0.103 5.89 0.532 8.196 1.904 2.306 1.372 4.045 3.17 5.219 5.393v0l-3.464 2.414c-0.748-1.476-1.677-2.637-2.785-3.481-1.108-0.844-2.291-1.43-3.549-1.756-1.258-0.326-2.487-0.469-3.686-0.43v0c-1.959 0.064-3.682 0.52-5.168 1.369-1.487 0.842-2.725 1.946-3.714 3.313-0.99 1.36-1.714 2.871-2.173 4.533-0.459 1.663-0.662 3.327-0.608 4.992v0c0.059 1.826 0.423 3.578 1.091 5.258 0.668 1.672 1.573 3.14 2.715 4.404 1.135 1.257 2.464 2.244 3.989 2.961 1.524 0.717 3.166 1.048 4.925 0.991v0c1.233-0.04 2.488-0.298 3.766-0.773 1.285-0.475 2.476-1.188 3.573-2.138 1.103-0.95 1.964-2.168 2.582-3.656v0l3.805 1.927c-0.676 1.783-1.756 3.316-3.242 4.598-1.493 1.276-3.168 2.261-5.027 2.955-1.858 0.694-3.7 1.071-5.526 1.131v0c-2.425 0.079-4.671-0.371-6.737-1.351-2.06-0.98-3.858-2.319-5.394-4.017-1.536-1.698-2.746-3.623-3.63-5.775-0.884-2.152-1.362-4.341-1.434-6.567zM262.784 25.154v0c-2.821 0.172-5.227-0.173-7.216-1.034-1.983-0.861-3.607-2.095-4.873-3.701-1.26-1.606-2.221-3.458-2.883-5.555-0.661-2.09-1.061-4.263-1.198-6.52v0l-1.087-17.877 4.481-0.272 1.088 17.877c0.105 1.723 0.384 3.396 0.836 5.018 0.446 1.623 1.108 3.058 1.985 4.308 0.87 1.243 2.011 2.205 3.422 2.887 1.411 0.682 3.127 0.962 5.15 0.839v0c2.056-0.125 3.743-0.618 5.06-1.48 1.31-0.868 2.324-1.981 3.042-3.341 0.719-1.359 1.202-2.862 1.449-4.506 0.254-1.652 0.329-3.323 0.227-5.013v0l-1.088-17.877 4.482-0.272 1.087 17.877c0.145 2.389 0.007 4.672-0.415 6.847-0.415 2.176-1.173 4.112-2.271 5.809-1.092 1.703-2.564 3.085-4.417 4.146-1.852 1.061-4.139 1.674-6.861 1.84zM310.286 21.065l-24.153 2.172-3.173-35.278 4.472-0.402 2.816 31.304 19.68-1.77zM319.919 19.917l-4.461 0.513-4.048-35.188 14.673-1.688c1.55-0.178 3.007-0.021 4.373 0.474 1.365 0.494 2.587 1.222 3.664 2.185 1.085 0.969 1.969 2.092 2.652 3.369 0.684 1.277 1.105 2.607 1.265 3.992v0c0.221 1.921 0.001 3.798-0.661 5.632-0.662 1.828-1.706 3.37-3.131 4.628-1.433 1.252-3.189 1.998-5.269 2.237v0l-10.511 1.209zM316.327-11.307l1.682 14.623 10.262-1.18c1.219-0.14 2.247-0.594 3.085-1.362 0.831-0.767 1.437-1.742 1.817-2.926 0.388-1.179 0.506-2.43 0.354-3.755v0c-0.159-1.384-0.601-2.595-1.324-3.633-0.724-1.044-1.602-1.822-2.634-2.334-1.026-0.519-2.119-0.713-3.278-0.579v0zM366.951-22.032l0.564 3.95-12.107 1.729 4.445 31.114-4.445 0.635-4.445-31.114-12.097 1.729-0.564-3.95z"
                                                                                            opacity="1"
                                                                                            transform="matrix(1,0,0,1,0,0)"
                                                                                            fill="#ffffff"
                                                                                            class="wordmark-text-0"
                                                                                            data-fill-palette-color="primary"
                                                                                            id="text-0"></path>
                                                                                    </svg></g>
                                                                            </svg></g>
                                                                    </svg></g>
                                                            </svg></g>
                                                        <g transform="matrix(1,0,0,1,88.45794759227002,0)"><svg
                                                                viewBox="0 0 15.084104815459966 25.998717625006297"
                                                                height="25.998717625006297" width="15.084104815459966">
                                                                <g><svg xmlns="http://www.w3.org/2000/svg"
                                                                        xml:space="preserve"
                                                                        viewBox="21.679107666015625 1 56.8582763671875 98"
                                                                        x="0" y="0" height="25.998717625006297"
                                                                        width="15.084104815459966" class="icon-icon-0"
                                                                        data-fill-palette-color="accent" id="icon-0">
                                                                        <path fill-rule="evenodd"
                                                                            d="M30.545 28.822c-1.165 7.217 0.33 14.85 6.5 19.041C30.758 19.81 45.756 8.664 59.646 1c-16.18 23.046 16.896 23.644 18.777 50.13C80.028 73.71 64.507 91.317 46.639 99c0.206-22.825-22.55-25.933-24.838-44.603-0.896-7.303 3.261-20.631 8.744-25.575"
                                                                            clip-rule="evenodd" fill="#ffffff"
                                                                            data-fill-palette-color="accent"></path>
                                                                    </svg></g>
                                                            </svg></g>
                                                        <g></g>
                                                    </svg></g>
                                            </svg></g>
                                    </svg></g>
                                <defs></defs>
                            </svg>
                            <rect width="320" height="360" fill="none" stroke="none" visibility="hidden"></rect>
                        </g>
                    </svg></g>
            </g>
        </g>
    </g>
    <rect width="204.0001427872062" height="37.998516032963494" x="218.9999796018277" y="195.75498735313312" rx="2.5"
        ry="2.5" fill="transparent" class="logo-element-hover-target"></rect>
    <rect width="27.084040469973843" height="37.99869451697123" x="307.4579797650131" y="168.2464201207572" rx="2.5"
        ry="2.5" fill="transparent" class="logo-element-hover-target"></rect>
</svg>